<svg xmlns="http://www.w3.org/2000/svg" xmlns:xlink="http://www.w3.org/1999/xlink" width="1271.79" height="1094.65" viewBox="0 0 1271.79 1094.65"><defs><linearGradient id="a" x1="653.75" x2="653.75" y2="451.02" gradientUnits="userSpaceOnUse"><stop offset="0" stop-color="#f7941d"/><stop offset="0.02" stop-color="#f78f1d"/><stop offset="0.19" stop-color="#f36620"/><stop offset="0.36" stop-color="#f04622"/><stop offset="0.52" stop-color="#ef2f23"/><stop offset="0.67" stop-color="#ed2124"/><stop offset="0.8" stop-color="#ed1c24"/></linearGradient></defs><path d="M731.46,451H675a45.77,45.77,0,0,0,5.44-8.29,46.51,46.51,0,0,0,4.4-13.17c7.31-38.78-8.62-72.65-20.89-107.15C657.12,303.2,651.12,284,655,261c-33.54,19.8-54.52,47-65.89,81.59s-10.24,69.61,0,105.85c-11.25-9-23-17.42-33.68-27C531.59,400,513,374.74,506.82,342.6c-9.23-47.82,4.72-90.66,34-127.76,21.39-27.15,46.66-51.21,69.8-77a461.06,461.06,0,0,0,30.85-37.66c22.39-31,31.78-63.86,9.2-100.17,43.23,18.65,85.46,70.71,96.16,129.3,10.39,56.82-2.59,110.08-23.92,162.39,24-15.3,32-40.47,41-65.32C819,290.74,824,391.12,731.46,451Z" transform="translate(-27.29)" fill="url(#a)"/><path d="M82.22,759.14H27.29V492.52H82.22Z" transform="translate(-27.29)" fill="#231f20"/><path d="M344.09,725.45Q329.26,743.21,302.15,753t-60.06,9.8q-34.62,0-60.71-15.11T141.1,703.84q-14.2-28.74-14.56-67.57V618.14q0-39.92,13.46-69.13t38.82-44.68q25.37-15.48,59.42-15.48,47.43,0,74.17,22.62t31.68,65.83H290.62q-3.67-22.89-16.21-33.51t-34.52-10.62q-28,0-42.67,21.06t-14.83,62.63v17q0,41.94,15.93,63.36T245,718.67q30.94,0,44.13-13.18v-46h-50V619.06H344.09Z" transform="translate(-27.29)" fill="#231f20"/><path d="M605.4,759.14H550.47l-107-175.43V759.14H388.59V492.52h54.93l107.13,175.8V492.52H605.4Z" transform="translate(-27.29)" fill="#231f20"/><path d="M745.31,612.65,800.8,492.52h60.06L773.33,662.46v96.68H717.48V662.46L629.94,492.52h60.25Z" transform="translate(-27.29)" fill="#231f20"/><path d="M1089,537h-81.67V759.14H952.42V537H871.85v-44.5H1089Z" transform="translate(-27.29)" fill="#231f20"/><path d="M1280.76,643.59H1175.28V715h123.79v44.13H1120.35V492.52h178.36V537H1175.28v63.54h105.48Z" transform="translate(-27.29)" fill="#231f20"/><path d="M572.26,963.54H435.65v131.11h-9.89V828H590.94v9.89H435.65V953.28H572.26Z" transform="translate(-27.29)" fill="#231f20"/><path d="M657.59,1094.65h-9.88V828h9.88Z" transform="translate(-27.29)" fill="#231f20"/><path d="M915.62,837.92H818.56v256.73h-9.89V837.92h-97V828h204Z" transform="translate(-27.29)" fill="#231f20"/></svg>