<svg xmlns="http://www.w3.org/2000/svg" xmlns:xlink="http://www.w3.org/1999/xlink" width="1417.29" height="286.82" viewBox="0 0 1417.29 286.82"><defs><linearGradient id="a" x1="95.23" x2="95.23" y2="286.82" gradientUnits="userSpaceOnUse"><stop offset="0" stop-color="#f7941d"/><stop offset="0.02" stop-color="#f78f1d"/><stop offset="0.19" stop-color="#f36620"/><stop offset="0.36" stop-color="#f04622"/><stop offset="0.52" stop-color="#ef2f23"/><stop offset="0.67" stop-color="#ed2124"/><stop offset="0.8" stop-color="#ed1c24"/></linearGradient></defs><path d="M144.65,286.82h-35.9A29.37,29.37,0,0,0,115,273.17c4.65-24.66-5.48-46.2-13.29-68.14-4.34-12.21-8.16-24.41-5.69-39-21.32,12.59-34.66,29.87-41.9,51.88s-6.51,44.27,0,67.31C47,279.47,39.5,274.1,32.71,268c-15.16-13.63-27-29.68-30.92-50.12-5.87-30.41,3-57.65,21.61-81.25,13.6-17.26,29.67-32.56,44.38-49a293.38,293.38,0,0,0,19.62-24C101.65,44,107.62,23.09,93.26,0c27.49,11.86,54.35,45,61.15,82.23,6.6,36.13-1.65,70-15.22,103.27,15.29-9.73,20.37-25.74,26.05-41.55C200.3,184.89,203.51,248.73,144.65,286.82Z" fill="url(#a)"/><path d="M286.52,254.16H251.58V84.6h34.94Z" fill="#231f20"/><path d="M453.05,232.73q-9.44,11.29-26.67,17.53a111.76,111.76,0,0,1-38.2,6.23q-22,0-38.6-9.61T324,219q-9-18.28-9.26-43V164.49q0-25.38,8.56-44T348,92.12q16.13-9.84,37.79-9.85,30.15,0,47.16,14.39t20.15,41.86H419q-2.32-14.55-10.3-21.31t-21.95-6.75q-17.82,0-27.14,13.39t-9.43,39.83v10.83q0,26.67,10.13,40.29t29.7,13.63q19.68,0,28.06-8.39V190.81H386.32V165.07h66.73Z" fill="#231f20"/><path d="M619.23,254.16H584.29l-68-111.56V254.16H481.35V84.6h34.93l68.13,111.8V84.6h34.82Z" fill="#231f20"/><path d="M708.2,161l35.28-76.4h38.2L726,192.67v61.49H690.5V192.67L634.83,84.6h38.31Z" fill="#231f20"/><path d="M926.78,112.9H874.84V254.16H839.91V112.9H788.67V84.6H926.78Z" fill="#231f20"/><path d="M1048.71,180.68H981.63V226.1h78.72v28.06H946.7V84.6h113.42v28.3H981.63v40.41h67.08Z" fill="#231f20"/><path d="M1198.93,170.78h-86.87v83.38h-6.29V84.6h105v6.29h-98.75v73.37h86.87Z" fill="#231f20"/><path d="M1253.2,254.16h-6.29V84.6h6.29Z" fill="#231f20"/><path d="M1417.29,90.89h-61.73V254.16h-6.28V90.89h-61.72V84.6h129.73Z" fill="#231f20"/></svg>