<svg xmlns="http://www.w3.org/2000/svg" xmlns:xlink="http://www.w3.org/1999/xlink" viewBox="0 0 1500 1500"><defs><style>.cls-1{fill:url(#IGNF_Gradient);}</style><linearGradient id="IGNF_Gradient" x1="750" y1="48.79" x2="750" y2="1451.21" gradientUnits="userSpaceOnUse"><stop offset="0" stop-color="#f7941d"/><stop offset="0.02" stop-color="#f78f1d"/><stop offset="0.19" stop-color="#f36620"/><stop offset="0.36" stop-color="#f04622"/><stop offset="0.52" stop-color="#ef2f23"/><stop offset="0.67" stop-color="#ed2124"/><stop offset="0.8" stop-color="#ed1c24"/></linearGradient></defs><g id="Layer_1_copy" data-name="Layer 1 copy"><path class="cls-1" d="M991.63,1451.21H816.09a144.08,144.08,0,0,0,30.58-66.72c22.75-120.58-26.79-225.9-64.94-333.16C760.47,991.59,741.83,932,753.91,860.4,649.64,922,584.4,1006.48,549,1114.11c-35.48,108-31.84,216.44,0,329.12-35-27.92-71.49-54.17-104.72-84.07-74.1-66.64-131.87-145.14-151.15-245.07-28.7-148.69,14.7-281.89,105.64-397.27,66.52-84.4,145.09-159.22,217-239.45,33.67-37.54,66.45-76.26,95.93-117.11,69.64-96.52,98.84-198.56,28.63-311.47,134.43,58,265.74,219.86,299,402.06,32.28,176.68-8.07,342.29-74.4,504.94,74.74-47.56,99.6-125.84,127.35-203.12C1263.73,952.83,1279.42,1265,991.63,1451.21Z"/></g></svg>